<?xml version="1.0" standalone="no"?>
<!DOCTYPE svg PUBLIC "-//W3C//DTD SVG 20010904//EN"
 "http://www.w3.org/TR/2001/REC-SVG-20010904/DTD/svg10.dtd">
<svg version="1.0" xmlns="http://www.w3.org/2000/svg"
 width="700.000000pt" height="700.000000pt" viewBox="0 0 700.000000 700.000000"
 preserveAspectRatio="xMidYMid meet">
<metadata>
Created by potrace 1.11, written by Peter Selinger 2001-2013
</metadata>
<g transform="translate(0.000000,700.000000) scale(0.100000,-0.100000)"
fill="#000000" stroke="none">
<path d="M4388 6995 c-2 -1 -32 -6 -68 -9 -92 -10 -161 -21 -306 -51 -11 -3
-68 -18 -125 -35 -624 -179 -1174 -632 -1468 -1210 -48 -94 -131 -285 -131
-302 0 -2 48 -3 108 -4 59 -1 145 -4 192 -7 47 -4 126 -9 175 -12 l90 -6 35
73 c72 149 211 339 347 473 302 298 699 491 1123 544 77 10 421 7 475 -4 17
-3 53 -10 80 -15 188 -35 321 -78 483 -155 102 -49 269 -150 332 -201 252
-205 414 -405 543 -674 91 -189 155 -409 175 -600 9 -87 9 -370 0 -445 -77
-622 -455 -1170 -1008 -1463 -68 -36 -75 -42 -73 -68 1 -16 5 -67 9 -114 4
-47 8 -160 8 -252 1 -93 2 -168 2 -168 5 0 93 32 109 39 11 5 49 22 85 37 74
32 271 141 340 187 477 323 829 806 985 1351 68 237 93 440 90 711 -3 207 -11
289 -46 460 -144 699 -603 1311 -1234 1644 -211 112 -506 212 -720 246 -16 2
-64 10 -105 16 -66 10 -493 22 -502 14z"/>
<path d="M5450 5509 c-25 -4 -126 -19 -225 -33 -99 -15 -191 -29 -205 -31 -14
-2 -72 -11 -130 -20 -58 -8 -132 -20 -165 -25 -76 -12 -131 -20 -175 -26 -19
-2 -46 -6 -60 -9 -14 -2 -47 -7 -75 -10 -27 -4 -57 -8 -65 -10 -8 -2 -37 -7
-65 -11 -27 -3 -59 -8 -70 -10 -11 -2 -36 -6 -55 -10 -105 -17 -117 7 120
-225 l213 -209 -984 -985 -984 -984 -213 216 c-175 179 -212 212 -213 192 0
-13 -2 -31 -4 -39 -1 -8 -8 -55 -14 -105 -7 -49 -14 -101 -16 -115 -7 -42 -15
-103 -20 -155 -3 -27 -8 -62 -10 -76 -3 -14 -7 -43 -10 -64 -9 -75 -21 -161
-30 -225 -2 -14 -9 -63 -15 -110 -6 -47 -13 -100 -15 -117 -3 -18 -7 -48 -10
-65 -2 -18 -9 -71 -15 -118 -19 -144 -20 -154 -26 -187 -3 -18 -3 -33 -2 -33
2 0 69 9 148 20 80 12 161 23 180 25 19 2 82 11 140 19 58 8 128 17 155 21 74
9 113 14 185 25 36 6 83 12 105 15 22 2 72 9 110 14 39 6 93 13 120 16 28 3
59 8 70 10 11 2 43 7 70 10 28 3 59 7 70 10 11 2 34 4 50 4 28 1 14 17 -188
214 l-217 212 984 984 985 985 210 -215 c116 -118 211 -212 212 -209 7 37 9
51 13 87 3 24 8 53 10 65 3 13 7 41 10 63 3 22 9 69 15 105 6 36 13 83 16 105
4 22 8 51 10 65 5 27 30 198 40 265 3 23 7 50 9 60 2 11 7 42 10 68 4 27 9 56
10 65 3 16 11 69 22 152 3 19 9 60 14 90 5 30 11 73 15 95 3 22 7 51 10 65 13
75 14 97 2 96 -7 0 -32 -3 -57 -7z"/>
<path d="M2298 4845 c-2 -2 -40 -5 -85 -9 -66 -4 -187 -20 -238 -30 -457 -93
-794 -256 -1150 -556 -132 -111 -341 -353 -444 -515 -67 -105 -190 -354 -236
-478 -33 -90 -88 -288 -100 -362 -3 -16 -7 -41 -10 -55 -3 -14 -7 -47 -11 -75
-3 -27 -8 -59 -11 -70 -3 -11 -6 -117 -8 -235 -3 -236 6 -332 51 -560 19 -93
65 -249 108 -359 325 -840 1108 -1437 2006 -1528 145 -15 491 -8 600 11 14 3
42 7 63 10 22 4 70 13 109 22 39 9 75 17 82 18 6 2 30 8 53 15 681 193 1224
648 1531 1283 34 69 64 139 68 155 4 15 10 33 14 38 11 14 76 226 95 309 99
434 75 906 -66 1326 -37 113 -157 380 -169 380 -3 0 -94 -90 -203 -199 l-198
-199 30 -71 c50 -117 99 -308 117 -456 9 -82 12 -359 3 -415 -4 -25 -10 -72
-14 -104 -26 -228 -152 -555 -295 -766 -266 -391 -664 -669 -1110 -774 -192
-45 -281 -55 -490 -51 -325 5 -572 67 -848 211 -365 191 -646 484 -822 857
-79 169 -119 298 -165 547 -11 59 -14 411 -4 480 5 36 11 81 14 100 4 29 25
132 30 150 1 3 5 19 9 35 137 522 538 994 1028 1210 46 20 92 41 103 46 56 25
257 82 339 95 21 3 48 7 60 10 138 26 481 23 626 -6 25 -5 56 -12 70 -14 64
-12 191 -50 268 -81 l86 -35 197 197 c108 109 195 202 192 206 -15 24 -290
141 -448 191 -74 23 -253 65 -305 71 -25 3 -56 7 -70 10 -68 12 -442 29 -452
20z"/>
</g>
</svg>
