<?xml version="1.0" standalone="no"?>
<!DOCTYPE svg PUBLIC "-//W3C//DTD SVG 20010904//EN"
 "http://www.w3.org/TR/2001/REC-SVG-20010904/DTD/svg10.dtd">
<svg version="1.0" xmlns="http://www.w3.org/2000/svg"
 width="700.000000pt" height="700.000000pt" viewBox="0 0 700.000000 700.000000"
 preserveAspectRatio="xMidYMid meet">
<metadata>
Created by potrace 1.11, written by Peter Selinger 2001-2013
</metadata>
<g transform="translate(0.000000,700.000000) scale(0.100000,-0.100000)"
fill="#000000" stroke="none">
<path d="M3340 6993 c-1170 -62 -2184 -657 -2813 -1651 -88 -138 -243 -452
-302 -612 -330 -890 -289 -1877 115 -2726 487 -1027 1452 -1760 2560 -1948
230 -39 359 -49 600 -49 240 0 371 10 596 49 1363 232 2468 1262 2799 2609 71
288 98 523 98 840 0 343 -36 612 -123 929 -337 1226 -1335 2184 -2571 2470
-317 73 -662 105 -959 89z m619 -1802 c243 -420 438 -767 434 -771 -4 -4 -207
-122 -450 -262 l-441 -255 -449 259 c-246 142 -447 263 -445 269 1 5 104 186
228 400 124 215 224 392 222 394 -10 11 -233 -74 -353 -135 -165 -82 -292
-171 -422 -294 -84 -79 -223 -240 -223 -257 0 -3 57 -39 128 -79 155 -88 164
-95 160 -134 -3 -30 -10 -34 -313 -168 -170 -75 -320 -137 -331 -137 -12 -1
-27 6 -35 15 -8 10 -26 139 -50 352 -33 297 -35 340 -23 360 8 12 23 22 34 22
11 0 61 -23 111 -52 77 -44 93 -49 100 -36 22 39 151 191 226 265 298 296 700
504 1091 564 l78 12 128 223 c71 123 131 225 134 229 3 3 9 0 13 -7 4 -7 206
-357 448 -777z m1251 -498 c193 -84 315 -143 321 -155 18 -34 -1 -56 -92 -108
-49 -28 -89 -55 -89 -59 0 -5 13 -41 30 -81 119 -288 175 -629 152 -914 l-11
-129 58 -64 c157 -174 237 -422 211 -652 -33 -294 -204 -540 -465 -671 -141
-71 -230 -92 -385 -92 -155 0 -242 21 -387 92 -202 100 -366 295 -432 515
-133 446 120 918 569 1060 151 48 369 45 518 -6 30 -10 60 -19 65 -19 14 0 1
273 -18 385 -26 151 -105 408 -134 438 -4 4 -70 -28 -147 -73 -76 -44 -148
-80 -159 -80 -31 0 -45 19 -45 61 0 33 50 509 65 616 6 44 26 73 50 73 8 0
154 -61 325 -137z m-2677 -1249 c216 -124 409 -237 430 -250 l37 -24 0 -494 0
-494 -187 -108 c-104 -59 -190 -108 -192 -110 -5 -5 153 -82 236 -115 98 -39
316 -95 406 -104 l67 -7 0 161 c0 93 4 171 10 182 24 44 58 26 317 -162 291
-213 305 -225 301 -258 -3 -24 -20 -37 -452 -352 -59 -43 -115 -79 -122 -79
-8 0 -23 9 -34 20 -17 17 -20 33 -20 124 l0 103 -62 7 c-263 28 -582 136 -813
276 -56 34 -92 50 -103 45 -9 -3 -63 -33 -119 -66 l-102 -59 -430 247 -430
248 -1 501 0 501 427 247 c236 135 431 246 436 246 4 0 184 -102 400 -226z"/>
</g>
</svg>
