<svg viewBox="0 0 477.6 477.6" xmlns="http://www.w3.org/2000/svg"><path d="M477.6016 238.8008c0 131.8867-106.9141 238.8008-238.8008 238.8008S0 370.6875 0 238.8008 106.914 0 238.8008 0s238.8008 106.914 238.8008 238.8008zm0 0" fill="#382b73"/><path d="M445.3984 238.8008c0 114.1015-92.496 206.5976-206.5976 206.5976S32.203 352.9024 32.203 238.8008 124.6992 32.203 238.8008 32.203c114.1015 0 206.5976 92.4961 206.5976 206.5977zm0 0" fill="#473080"/><g fill="#382b73"><path d="M269.4219 374.004a3.385 3.385 0 0 0-.836-.8868l-35.664-26.2031c-.5547-.4063-1.168-.6133-1.7774-.6524-.1875-.0117-.375 0-.5625.0196-.2187.0234-.4336.0703-.6445.1328-.2656.082-.5195.1992-.7578.3437-.1797.1094-.3516.2266-.5078.3672a3.3772 3.3772 0 0 0-.8086 1.086c-.1914.4218-.3047.8984-.3047 1.418v21.828c-17.754-1.6523-34.4063-7.1406-49.129-15.621l25.7657-14.875v-67.9493l-58.8476-33.9765-58.8516 33.9765v67.9492l58.8516 33.9766 16.2226-9.3672c19.586 13.2188 42.1758 21.1484 65.9922 23.0664v13.3945c0 2.7618 3.1367 4.3477 5.3594 2.7149l31.5937-23.211 4.0703-2.9921c.3438-.25.6211-.5547.8399-.8867a3.3866 3.3866 0 0 0 .3437-.6954 3.4036 3.4036 0 0 0 0-2.2617c-.0898-.2383-.203-.4726-.3476-.6953zm0 0M111.3398 195.9492c-.121.2735-.2421.5469-.3593.8242l.4218-.25.7852 7.1055.2695 2.4688.664 6c.1095.9882.6212 1.8046 1.3438 2.3359.7188.5312 1.6407.7734 2.5665.6172a3.4521 3.4521 0 0 0 .789-.2383l40.5234-17.7852c2.211-.9687 2.6368-3.7812 1.1055-5.3906-.2187-.2304-.4765-.4336-.7734-.6054l-18.8633-10.8907c16.5977-23.3281 41.2188-40.5703 69.8008-47.668l-31.9063 55.2579 61.1953 35.332 61.1954-35.332-61.1954-105.9922-18.0195 31.211c-30.207 3.8984-58.1328 17.5585-80.0234 39.4491-5.9531 5.9532-11.2852 12.3516-15.9844 19.1172l-11.582-6.6875c-2.3907-1.3789-5.336.543-5.0313 3.2852zm0 0M395.246 308.6445l-.0116-.3867a68.2395 68.2395 0 0 0-.1406-2.1953c-.0079-.1172-.0196-.2344-.0313-.3555a57.2867 57.2867 0 0 0-.5938-4.5976l-.0234-.1524a61.908 61.908 0 0 0-.4414-2.2812c-.0117-.0469-.0234-.0938-.0312-.1406-2.5899-11.9375-8.8399-22.5079-17.5157-30.4805a140.8389 140.8389 0 0 0 1.1055-17.6133c0-20.8516-4.5781-41.0039-13.25-59.3086l11.5469-6.664c2.3867-1.379 2.1953-4.8907-.332-6l-40.5196-17.7813a3.4489 3.4489 0 0 0-1.1875-.2852 3.3407 3.3407 0 0 0-1.1484.1446c-.2422.0781-.4805.1797-.7031.3086-.1094.0625-.2149.1328-.3204.207-.7148.5312-1.2343 1.3477-1.3437 2.336l-1.6172 14.664-3.2422 29.3242c-.0742.6836.0508 1.3203.3242 1.8633.2032.4062.4844.7656.8243 1.0547.2734.2344.582.418.914.5547a3.236 3.236 0 0 0 .5703.1836c.0586.0117.1133.0234.1719.0351.7227.1211 1.5.0117 2.2266-.4062l18.8906-10.9102c7.1094 15.4336 11.082 32.6016 11.082 50.6797 0 2.375-.0703 4.7305-.207 7.0742-7.0977-3.0781-14.9219-4.793-23.1484-4.793-27.8907 0-51.1993 19.6211-56.879 45.8126-.0078.0468-.0195.0937-.0273.1406a54.7148 54.7148 0 0 0-.4453 2.2812l-.0234.1524c-.2579 1.5117-.4532 3.0468-.5938 4.5976a10.9064 10.9064 0 0 1-.0312.3555c-.0586.7305-.1094 1.461-.1407 2.1953l-.0117.3867c-.0312.7578-.0508 1.5196-.0508 2.289 0 2.008.1016 3.9923.3008 5.9493.1016.9805.2227 1.9531.3711 2.914.0742.4805.1523.961.2383 1.4376.168.957.3633 1.9023.582 2.8437a58.058 58.058 0 0 0 1.5664 5.5235 57.3963 57.3963 0 0 0 2.6836 6.5664c.2031.4257.414.8476.629 1.2656.6405 1.2539 1.328 2.4805 2.0546 3.6836.9727 1.5976 2.0234 3.1484 3.1367 4.6445a58.6045 58.6045 0 0 0 11.8164 11.8164 58.591 58.591 0 0 0 4.6446 3.1367c1.1992.7305 2.4296 1.4141 3.6836 2.0586.418.211.8398.422 1.2656.625 2.1172 1.0235 4.3125 1.918 6.5664 2.6836a57.7333 57.7333 0 0 0 5.5234 1.5664c.9375.2188 1.8867.4102 2.8399.582.4804.086.961.1641 1.4414.2384.9648.1484 1.9336.2695 2.914.371a58.7469 58.7469 0 0 0 5.9532.3008c2.0078 0 3.9922-.1015 5.9492-.3008.9805-.1015 1.9531-.2226 2.914-.371a57.9426 57.9426 0 0 0 9.8047-2.3868c5.8594-1.9843 11.3008-4.875 16.1602-8.5078a60.0444 60.0444 0 0 0 3.2656-2.6289c1.4063-1.2187 2.7578-2.5039 4.039-3.8516a58.4169 58.4169 0 0 0 7.6484-9.9766c.2423-.4023.4806-.8046.715-1.2109 1.3984-2.4375 2.6289-4.9843 3.6718-7.6289.1758-.4414.3438-.8867.5078-1.332.3243-.8906.629-1.793.9141-2.7031a57.3175 57.3175 0 0 0 1.125-4.164c.543-2.3477.9414-4.75 1.1914-7.1954a59.8297 59.8297 0 0 0 .2969-5.9492 73.6573 73.6573 0 0 0-.0586-2.289zm0 0"/></g><path d="M122.0508 178.2383l6.0547 10.2578c19.086-42.1797 61.5703-71.5938 110.7968-71.5938 4.379 0 8.7032.2383 12.9649.6915v-17.2032c-4.2813-.3945-8.6055-.6015-12.9649-.6015-37.0351 0-71.8554 14.4218-98.043 40.6093-12.9374 12.9414-23 27.9922-29.875 44.375zm0 0M245.457 371.4883l6.3868-12.1914c-4.25.4531-8.5665.6914-12.9415.6914-59.8007 0-109.6484-43.418-119.6914-100.3828l-15.6406 9.2304c5.6602 25.4336 18.418 48.7852 37.289 67.6524 26.1876 26.1914 61.0079 40.6133 98.043 40.6133 5.254 0 10.457-.3008 15.6016-.8711zm0 0M350.3867 155.9531v12.3047h-12.3086c14.0781 19.8399 22.3672 44.0625 22.3672 70.1836 0 38.8008-18.2812 73.414-46.6758 95.6836l16.4766 8.6328c2.289-2.0117 4.5273-4.0976 6.7031-6.2734 26.1875-26.1875 40.6094-61.0078 40.6094-98.043 0-30.1055-9.5313-58.7539-27.1719-82.4883zm0 0" fill="#fff"/><path d="M348.4648 168.2617h-10.3867c14.0781 19.836 22.3672 44.0586 22.3672 70.1836 0 38.8008-18.2812 73.414-46.6758 95.6797l8.3086 4.3555c28.668-23.8633 46.9258-59.8164 46.9258-100.0352 0-25.8476-7.543-49.9375-20.539-70.1836zm0 0M251.8438 359.2969c-4.254.4492-8.5704.6875-12.9415.6875-59.8007 0-109.6523-43.414-119.6953-100.379l-7.8437 4.629c11.9648 59.496 64.5156 104.3086 127.539 104.3086 2.7657 0 5.5079-.0977 8.2344-.2657zm0 0M128.1055 188.496c19.086-42.1796 61.5703-71.5937 110.7968-71.5937 4.379 0 8.7032.2383 12.9649.6915v-8.6094a131.5675 131.5675 0 0 0-12.9649-.6406c-50.668 0-94.5703 28.9687-116.0507 71.25zm0 0" fill="#d0d2d3"/><path d="M227.5625 390.0352v-52.4024c0-2.7617 3.1367-4.3476 5.3594-2.7148l35.664 26.203c1.8282 1.3438 1.8282 4.0821 0 5.4259L232.922 392.75c-2.2227 1.6328-5.3594.043-5.3594-2.7148zm0 0" fill="#fff"/><path d="M232.9219 346.3281l31.5937 23.211 4.0703-2.9922c1.832-1.3477 1.832-4.082 0-5.4297l-35.6601-26.2031c-2.2266-1.6329-5.3633-.043-5.3633 2.7148v11.4102c0-2.7578 3.1367-4.3438 5.3594-2.711zm0 0" fill="#d0d2d3"/><path d="M375.8555 172.4727l-45.3828 26.203c-2.3907 1.379-5.336-.5429-5.0313-3.289l4.8594-43.9844c.25-2.2578 2.621-3.625 4.7031-2.7148l40.5195 17.7852c2.5274 1.1093 2.7188 4.621.332 6zm0 0" fill="#fff"/><path d="M341.6875 151.621L335 148.6876c-2.0781-.914-4.4492.4531-4.6992 2.7148l-4.8594 43.9844c-.3047 2.7422 2.6367 4.668 5.0273 3.289l6.4258-3.7109zm0 0" fill="#d0d2d3"/><path d="M113.293 152.8281l45.3828 26.2031c2.3906 1.379 2.1953 4.8907-.3281 6l-40.5235 17.7813c-2.082.914-4.4492-.4531-4.6992-2.711l-4.8594-43.9882c-.3047-2.7422 2.6367-4.664 5.0274-3.2852zm0 0" fill="#fff"/><path d="M158.6758 179.0273l-8.3125-4.8007c-.3399.5507-.8399 1.0156-1.5078 1.3086l-36.668 16.0937.9375 8.4688c.25 2.2578 2.6172 3.625 4.6992 2.7148l40.5235-17.7852c2.5234-1.1054 2.7148-4.621.328-6zm0 0" fill="#d0d2d3"/><path d="M177.707 175.7305l61.1953-105.9922v141.3242zm0 0" fill="#fddd3a"/><path d="M238.9023 69.7383l61.1954 105.9922-61.1954 35.332zm0 0" fill="#fff235"/><path d="M300.0977 175.7305l-61.1954-35.332-61.1953 35.332 61.1953 35.332zm0 0" fill="#f6ca14"/><path d="M346.4648 241.496c-31.7226-5.1913-61.6484 16.3126-66.8437 48.0352-5.1953 31.7188 16.3086 61.6485 48.0312 66.8438 31.7227 5.1914 61.6485-16.3125 66.8438-48.0352 5.1953-31.7187-16.3086-61.6484-48.0313-66.8437zm0 0" fill="#1cade3"/><path d="M337.0898 318.5469c-25.3828 0-46.9648-16.2461-54.9257-38.9102-2.1211 6.039-3.2813 12.5313-3.2813 19.293 0 32.1445 26.0625 58.207 58.207 58.207 32.1446 0 58.207-26.0625 58.207-58.207 0-6.7656-1.16-13.254-3.2773-19.293-7.961 22.664-29.5468 38.9102-54.9297 38.9102zm0 0" fill="#0099dc"/><path d="M86.496 261.0117v67.9531l58.8517 33.9766 58.8476-33.9766v-67.953l-58.8476-33.9766zm0 0" fill="#ee5a9c"/><path d="M204.1953 328.9648l-58.8476-33.9765-58.8516 33.9765 58.8516 33.9766zm0 0" fill="#e43c90"/><path d="M145.3477 294.9883v-67.9531l58.8476 33.9765v67.9531zm0 0" fill="#ef6ea8"/></svg>
